<svg width="32" height="39" viewBox="0 0 32 39" fill="none" xmlns="http://www.w3.org/2000/svg">
<path d="M5.96942 6.94653C6.61469 6.94653 7.14099 6.42023 7.14099 5.77496C7.14099 5.1297 6.61469 4.60339 5.96942 4.60339C5.32416 4.60339 4.79785 5.1297 4.79785 5.77496C4.79785 6.42383 5.32416 6.94653 5.96942 6.94653Z" fill="#85B839"/>
<path d="M9.59587 24.7833V27.0327C11.4199 25.7097 13.5972 24.9851 15.8935 24.9851C18.1862 24.9851 20.3671 25.7097 22.1912 27.0327V24.7833C22.1912 22.8943 23.1392 21.2253 24.5776 20.2195C24.455 17.8476 22.494 15.955 20.0931 15.955H11.6939C9.29307 15.955 7.33204 17.8476 7.20947 20.2195C8.6478 21.2253 9.59587 22.8943 9.59587 24.7833Z" fill="#85B839"/>
<path d="M22.822 12.5304H8.91455V14.4265H22.822V12.5304Z" fill="#85B839"/>
<path d="M22.1915 29.0261C20.4756 27.4183 18.255 26.528 15.8938 26.528C13.5327 26.528 11.3121 27.4183 9.59619 29.0261V31.0809H22.1915V29.0261Z" fill="#85B839"/>
<path d="M25.551 6.94653C26.1962 6.94653 26.7225 6.42023 26.7225 5.77496C26.7225 5.1297 26.1962 4.60339 25.551 4.60339C24.9057 4.60339 24.3794 5.1297 24.3794 5.77496C24.3794 6.42383 24.9057 6.94653 25.551 6.94653Z" fill="#85B839"/>
<path d="M15.9119 3.77786C16.9537 3.77786 17.8008 2.93073 17.8008 1.88893C17.8008 0.847135 16.9537 0 15.9119 0C14.8701 0 14.0229 0.847135 14.0229 1.88893C14.0229 2.93073 14.8701 3.77786 15.9119 3.77786Z" fill="#85B839"/>
<path d="M27.7608 20.7567C25.5402 20.7567 23.7342 22.5627 23.7342 24.7832V32.6202H8.05319V24.7832C8.05319 22.5627 6.24717 20.7567 4.0266 20.7567C1.80602 20.7567 0 22.5627 0 24.7832C0 27.0038 1.80602 28.8098 4.0266 28.8098H4.79803V35.8789H26.9894V28.8098H27.7608C29.9814 28.8098 31.7874 27.0038 31.7874 24.7832C31.7874 22.5627 29.9814 20.7567 27.7608 20.7567ZM4.0266 26.0341C3.33447 26.0341 2.77572 25.4754 2.77572 24.7832C2.77572 24.0911 3.33807 23.5324 4.0266 23.5324C4.71872 23.5324 5.27747 24.0911 5.27747 24.7832C5.27747 25.4754 4.71872 26.0341 4.0266 26.0341ZM27.7608 26.0341C27.0687 26.0341 26.5099 25.4754 26.5099 24.7832C26.5099 24.0911 27.0687 23.5324 27.7608 23.5324C28.4529 23.5324 29.0117 24.0911 29.0117 24.7832C29.0117 25.4754 28.4529 26.0341 27.7608 26.0341Z" fill="#85B839"/>
<path d="M8.69845 10.9875H23.0349C23.8171 10.1404 24.3831 9.14546 24.6967 8.0604C23.7703 8.54706 22.7321 8.81742 21.665 8.81742C19.138 8.81742 16.9499 7.37549 15.8649 5.27026C14.7798 7.37188 12.5881 8.81742 10.0647 8.81742C8.99405 8.81742 7.95946 8.55787 7.03662 8.07482C7.35745 9.15267 7.91981 10.144 8.69845 10.9875Z" fill="#85B839"/>
<path d="M9.59609 37.4218H8.05322V38.9646H9.59609V37.4218Z" fill="#85B839"/>
<path d="M23.7343 37.4218H22.1914V38.9646H23.7343V37.4218Z" fill="#85B839"/>
</svg>
