<svg width="58" height="58" viewBox="0 0 58 58" fill="none" xmlns="http://www.w3.org/2000/svg">
<path d="M53.9398 32.5046L52.4378 26.4968C52.8484 26.4095 53.1565 26.0452 53.1565 25.6088V24.6401C53.1565 22.5369 51.4454 20.8259 49.3424 20.8259H42.5011V18.828C42.5011 17.793 41.6592 16.9511 40.6242 16.9511H27.9034L35.6337 13.859C36.0994 13.6728 36.3259 13.1442 36.1397 12.6785C35.9534 12.2129 35.4252 11.9862 34.9592 12.1726L28.6297 14.7043C30.5584 13.4668 32.4666 12.1048 33.1931 11.1524C34.6074 9.29808 34.2492 6.63891 32.3949 5.2246C30.5406 3.81017 27.8815 4.16847 26.4671 6.02278C25.4338 7.37785 24.0703 11.1853 23.1879 13.8684C22.3054 11.1856 20.942 7.37785 19.9086 6.02278C18.4944 4.16847 15.8351 3.81039 13.9808 5.2246C12.1265 6.6388 11.7684 9.29796 13.1827 11.1524C13.9091 12.105 15.8172 13.4668 17.7461 14.7043L11.4166 12.1726C10.9507 11.986 10.4223 12.2128 10.2361 12.6785C10.0497 13.1442 10.2763 13.6728 10.742 13.859L18.4723 16.9511H5.75152C4.71658 16.9511 3.87467 17.793 3.87467 18.828V35.2957C3.87467 35.7972 4.28124 36.2038 4.78285 36.2038C5.28434 36.2038 5.69102 35.7973 5.69102 35.2957V18.828C5.69102 18.7946 5.7181 18.7675 5.75152 18.7675H40.6241C40.6575 18.7675 40.6846 18.7946 40.6846 18.828V35.2959C40.6846 35.7974 41.0912 36.2041 41.5928 36.2041C42.0943 36.2041 42.501 35.7975 42.501 35.2959V34.2664H53.2135C53.2145 34.2664 53.2153 34.2666 53.2164 34.2666C53.2174 34.2666 53.2183 34.2665 53.2193 34.2665C54.5374 34.2675 55.6567 35.1328 56.0409 36.3249H53.217C52.7155 36.3249 52.3089 36.7315 52.3089 37.2331V39.1705C52.3089 40.7395 53.5853 42.016 55.1544 42.016H56.1836V46.0117H53.809C53.029 43.7595 50.8879 42.1369 48.3736 42.1369C45.8593 42.1369 43.7181 43.7594 42.9381 46.0117H42.5009V39.1703C42.5009 38.6688 42.0943 38.2622 41.5927 38.2622C41.0912 38.2622 40.6845 38.6687 40.6845 39.1703V46.0116H21.8426C21.0625 43.7594 18.9214 42.1368 16.4071 42.1368C13.8928 42.1368 11.7516 43.7593 10.9716 46.0116H5.75152C5.7181 46.0116 5.69102 45.9845 5.69102 45.9511V43.9532H9.6263C10.1278 43.9532 10.5345 43.5466 10.5345 43.045C10.5345 42.5434 10.1279 42.1368 9.6263 42.1368H0.908176C0.40668 42.1368 0 42.5434 0 43.045C0 43.5466 0.406566 43.9532 0.908176 43.9532H3.87479V45.9511C3.87479 46.9861 4.71669 47.828 5.75163 47.828H10.6572C10.6569 47.8481 10.6556 47.8682 10.6556 47.8885C10.6556 51.0598 13.2358 53.64 16.4071 53.64C19.5784 53.64 22.1586 51.0598 22.1586 47.8885C22.1586 47.8681 22.1572 47.8481 22.157 47.828H42.6235C42.6233 47.8481 42.622 47.8682 42.622 47.8885C42.622 51.0598 45.2022 53.64 48.3735 53.64C51.5448 53.64 54.125 51.0598 54.125 47.8885C54.125 47.8681 54.1236 47.8481 54.1234 47.828H57.0917C57.5932 47.828 57.9999 47.4214 57.9999 46.9198V37.233C58 34.8412 56.2354 32.854 53.9398 32.5046ZM19.5863 13.7137C16.004 11.4876 14.9415 10.4634 14.6269 10.0508C13.82 8.9929 14.0243 7.47572 15.0824 6.66882C15.5185 6.33622 16.0326 6.17548 16.5429 6.17548C17.2704 6.17548 17.9902 6.50241 18.4645 7.12432C19.343 8.27617 20.7188 12.153 21.6271 14.9466C21.0141 14.5857 20.3095 14.1633 19.5863 13.7137ZM24.7489 14.9465C25.6572 12.153 27.033 8.27628 27.9114 7.12421C28.7183 6.06628 30.2354 5.86203 31.2934 6.66882C32.3514 7.47572 32.5557 8.9929 31.7489 10.0508C31.4343 10.4633 30.3717 11.4876 26.7897 13.7136C26.0666 14.1631 25.362 14.5856 24.7489 14.9465ZM42.5011 22.642H49.3424C50.444 22.642 51.3403 23.5383 51.3403 24.64V24.7005H42.5011V22.642ZM42.5011 32.45V26.5168H50.5707L52.054 32.45H42.5011ZM16.4071 51.8237C14.2372 51.8237 12.4718 50.0584 12.4718 47.8885C12.4718 45.7186 14.2372 43.9532 16.4071 43.9532C18.577 43.9532 20.3424 45.7186 20.3424 47.8885C20.3424 50.0584 18.577 51.8237 16.4071 51.8237ZM48.3737 51.8237C46.2038 51.8237 44.4384 50.0584 44.4384 47.8885C44.4384 45.7186 46.2038 43.9532 48.3737 43.9532C50.5436 43.9532 52.309 45.7186 52.309 47.8885C52.309 50.0584 50.5436 51.8237 48.3737 51.8237ZM56.1838 40.1995H55.1545C54.5869 40.1995 54.1252 39.7378 54.1252 39.1702V38.141H56.1836V40.1995H56.1838Z" fill="#7AC751"/>
<path d="M16.4074 46.0117C15.3724 46.0117 14.5305 46.8536 14.5305 47.8886C14.5305 48.9235 15.3724 49.7654 16.4074 49.7654C17.4423 49.7654 18.2842 48.9235 18.2842 47.8886C18.2842 46.8536 17.4423 46.0117 16.4074 46.0117Z" fill="#7AC751"/>
<path d="M48.3734 46.0117C47.3385 46.0117 46.4966 46.8536 46.4966 47.8886C46.4966 48.9235 47.3385 49.7654 48.3734 49.7654C49.4084 49.7654 50.2503 48.9235 50.2503 47.8886C50.2503 46.8536 49.4084 46.0117 48.3734 46.0117Z" fill="#7AC751"/>
<path d="M37.7185 42.1368H24.157C23.6555 42.1368 23.2488 42.5434 23.2488 43.045C23.2488 43.5466 23.6553 43.9532 24.157 43.9532H37.7185C38.22 43.9532 38.6267 43.5466 38.6267 43.045C38.6267 42.5434 38.2201 42.1368 37.7185 42.1368Z" fill="#7AC751"/>
<path d="M14.4702 38.2623H2.84592C2.34442 38.2623 1.93774 38.6689 1.93774 39.1705C1.93774 39.6721 2.34431 40.0787 2.84592 40.0787H14.4702C14.9717 40.0787 15.3783 39.6721 15.3783 39.1705C15.3783 38.6689 14.9717 38.2623 14.4702 38.2623Z" fill="#7AC751"/>
<path d="M14.4697 24.7006H10.5949C10.0934 24.7006 9.68677 25.1071 9.68677 25.6087V33.3582C9.68677 33.8597 10.0933 34.2664 10.5949 34.2664C11.0966 34.2664 11.5031 33.8598 11.5031 33.3582V30.3916H13.5011C14.0026 30.3916 14.4092 29.985 14.4092 29.4834C14.4092 28.9818 14.0027 28.5752 13.5011 28.5752H11.5031V26.5169H14.4697C14.9712 26.5169 15.3779 26.1103 15.3779 25.6087C15.3778 25.1072 14.9712 24.7006 14.4697 24.7006Z" fill="#7AC751"/>
<path d="M21.6165 30.8174C22.5254 30.2221 23.1273 29.1956 23.1273 28.0305C23.1273 26.1943 21.6336 24.7006 19.7974 24.7006H17.3757C16.8742 24.7006 16.4675 25.1071 16.4675 25.6087V33.3582C16.4675 33.8597 16.8741 34.2664 17.3757 34.2664C17.8773 34.2664 18.2839 33.8598 18.2839 33.3582V31.3603H19.7957L21.4635 33.8619C21.6385 34.1243 21.9263 34.2664 22.2198 34.2664C22.393 34.2664 22.5679 34.217 22.7227 34.1137C23.1401 33.8356 23.2528 33.2717 22.9745 32.8544L21.6165 30.8174ZM19.7974 29.544H18.2839V26.5169H19.7974C20.6321 26.5169 21.311 27.1958 21.311 28.0305C21.311 28.8651 20.6321 29.544 19.7974 29.544Z" fill="#7AC751"/>
<path d="M28.9997 32.4501H26.0331V30.3886C26.0532 30.39 26.0732 30.3917 26.0936 30.3917H28.031C28.5325 30.3917 28.9391 29.9851 28.9391 29.4835C28.9391 28.9819 28.5326 28.5754 28.031 28.5754H26.0936C26.0731 28.5754 26.0532 28.577 26.0331 28.5784V26.5169H28.9997C29.5012 26.5169 29.9079 26.1103 29.9079 25.6087C29.9079 25.1072 29.5014 24.7006 28.9997 24.7006H25.125C24.6235 24.7006 24.2168 25.1071 24.2168 25.6087V33.3582C24.2168 33.8597 24.6234 34.2664 25.125 34.2664H28.9997C29.5012 34.2664 29.9079 33.8598 29.9079 33.3582C29.9079 32.8566 29.5012 32.4501 28.9997 32.4501Z" fill="#7AC751"/>
<path d="M35.781 32.4501H32.8144V30.3917H33.8437C34.3452 30.3917 34.7518 29.9851 34.7518 29.4835C34.7518 28.9819 34.3453 28.5754 33.8437 28.5754H32.8144V26.5169H35.781C36.2825 26.5169 36.6892 26.1103 36.6892 25.6087C36.6892 25.1072 36.2826 24.7006 35.781 24.7006H31.9062C31.4047 24.7006 30.998 25.1071 30.998 25.6087V33.3582C30.998 33.8597 31.4046 34.2664 31.9062 34.2664H35.781C36.2825 34.2664 36.6892 33.8598 36.6892 33.3582C36.6892 32.8566 36.2825 32.4501 35.781 32.4501Z" fill="#7AC751"/>
</svg>
