<svg width="25" height="25" viewBox="0 0 25 25" fill="none" xmlns="http://www.w3.org/2000/svg">
<path d="M12.4245 21.7535L4.18364 13.503C3.09071 12.4089 2.47665 10.925 2.47656 9.37763C2.47647 7.83028 3.09035 6.34626 4.18315 5.25205C5.27595 4.15783 6.75816 3.54306 8.30371 3.54297C9.84925 3.54288 11.3315 4.15748 12.4245 5.25156C13.5179 4.15871 14.9998 3.54492 16.5449 3.54492C18.0899 3.54492 19.5718 4.15871 20.6653 5.25156C21.7564 6.34655 22.3691 7.8301 22.3691 9.3768C22.3691 10.9235 21.7564 12.4071 20.6653 13.502L12.4245 21.7535ZM8.30357 5.48784C7.53513 5.48781 6.78394 5.71595 6.14502 6.14338C5.50609 6.57082 5.00814 7.17836 4.71413 7.88916C4.42012 8.59996 4.34326 9.38209 4.49329 10.1366C4.64331 10.8912 5.01347 11.5842 5.55695 12.1281L12.4245 19.0037L19.292 12.1281C19.6864 11.742 19.9942 11.2762 20.1949 10.7617C20.3955 10.2472 20.4844 9.69587 20.4557 9.14431C20.4269 8.59276 20.2812 8.05366 20.0281 7.56289C19.7751 7.07212 19.4205 6.64093 18.988 6.29803C18.5556 5.95512 18.0551 5.70836 17.52 5.57416C16.9849 5.43996 16.4273 5.4214 15.8845 5.51972C15.3416 5.61804 14.8259 5.83098 14.3717 6.14437C13.9174 6.45776 13.5351 6.86442 13.25 7.33727L12.4245 8.67135L11.5989 7.33727C11.2581 6.76847 10.7748 6.29875 10.1967 5.97468C9.61866 5.6506 8.96604 5.48345 8.30357 5.48979V5.48784Z" fill="#757575"/>
</svg>
